PathFileType	4	(X/Y/Z)	D:\Share\Shared_Data\Ergonomics\Sit To Stand Pertubation\S2\Unperturbed.trc
DataRate	CameraRate	NumFrames	NumMarkers	Units	OrigDataRate	OrigDataStartFrame	OrigNumFrames	
100	100	11	18	m	100	2774	261
Frame#	Time	R_Toe			R_ASIS			R_Pelvis			V_Sacral			L_Pelvis			L_ASIS			Clavical			R_Acromium			L_Acromium			Sternum			Torso			R_Thigh_Med			R_Thigh_Lat			R_Thigh			R_Shank_Med			R_Shank_Lat			R_Shank			R_Heel			
		X1	Y1	Z1	X2	Y2	Z2	X3	Y3	Z3	X4	Y4	Z4	X5	Y5	Z5	X6	Y6	Z6	X7	Y7	Z7	X8	Y8	Z8	X9	Y9	Z9	X10	Y10	Z10	X11	Y11	Z11	X12	Y12	Z12	X13	Y13	Z13	X14	Y14	Z14	X15	Y15	Z15	X16	Y16	Z16	X17	Y17	Z17	X18	Y18	Z18	

2774	27.73	0.44075565	0.064997986	0.14588431	0.33515195	0.99924799	0.16057962	0.26370233	1.0177212	0.20159241	0.12553793	1.0406743	0.03972337	0.23136722	1.0371841	-0.13843927	0.32407968	1.0210495	-0.10882158	0.46843158	1.3992889	0.031134899	0.3884426	1.444313	0.23912582	0.37392401	1.4618413	-0.15119652	0.47295819	1.2353069	0.024589645	0.46549756	1.3629103	-0.08500351	0.39169867	0.49357468	0.11107005	0.37740433	0.51387775	0.20534145	0.41147733	0.69553021	0.18080029	0.30507193	0.10635206	0.10988291	0.28591803	0.099902901	0.20139731	0.3426001	0.36459659	0.22914218	0.20386537	0.059925671	0.15474329
2775	27.74	0.44076077	0.064980133	0.14590305	0.33828473	1.001115	0.16026123	0.266492	1.0189666	0.20114154	0.12845178	1.0416327	0.039195805	0.23419334	1.0382633	-0.13891486	0.32695798	1.022836	-0.10926254	0.46766644	1.4029301	0.030672298	0.38683408	1.4469879	0.23871205	0.37239429	1.4645723	-0.1516859	0.47371481	1.2389009	0.024012859	0.46501886	1.3664866	-0.085541573	0.39075772	0.49373633	0.11062846	0.37655945	0.51417963	0.20481593	0.41224411	0.6952655	0.18033028	0.30523959	0.10640564	0.10985526	0.28587833	0.099918198	0.20134398	0.34184625	0.36489871	0.22878627	0.20388142	0.059960041	0.15473822
2776	27.75	0.4407663	0.064961975	0.14591884	0.34138855	1.0029155	0.15990932	0.26925424	1.0201473	0.20065942	0.131314	1.0425103	0.038660011	0.23695418	1.0392704	-0.13941138	0.32984131	1.0245885	-0.10972576	0.46689722	1.4064136	0.03018396	0.38526074	1.4495126	0.23826639	0.3708652	1.4671663	-0.15219893	0.47443707	1.2423623	0.023413231	0.46451996	1.369916	-0.086102997	0.38980933	0.49389444	0.11015651	0.37572943	0.51447485	0.20424432	0.41301428	0.69500061	0.17982228	0.30539096	0.10645215	0.10982394	0.28584128	0.099936974	0.20128705	0.34110663	0.3652049	0.228395	0.20389442	0.05999469	0.15472952
2777	27.76	0.4407724	0.064943687	0.14593106	0.34446387	1.0046524	0.15951811	0.27200192	1.0212679	0.20014488	0.13412445	1.0433076	0.038121613	0.23964525	1.0402058	-0.13992661	0.3327471	1.0263137	-0.11021705	0.46612259	1.4097494	0.029669245	0.38372983	1.4518984	0.23779005	0.36933643	1.4696301	-0.15273424	0.4751167	1.2456997	0.02279026	0.46399805	1.3732085	-0.086687332	0.38884036	0.49404651	0.10964888	0.37490063	0.51476538	0.20362512	0.41379565	0.69473505	0.17928526	0.30551126	0.10648536	0.10978751	0.28580676	0.099960052	0.20122574	0.34036929	0.36551923	0.227965	0.20390504	0.060030941	0.15471774
2778	27.77	0.44077924	0.064925385	0.14593915	0.34750989	1.0063307	0.15908311	0.27474994	1.0223351	0.19959662	0.13688483	1.044027	0.037585308	0.24226443	1.041069	-0.14045767	0.33565839	1.0280063	-0.11074429	0.46534079	1.4129487	0.029126015	0.38224738	1.454156	0.23728439	0.36780508	1.4719691	-0.15329025	0.47574561	1.2489227	0.022141182	0.46345071	1.3763751	-0.087296059	0.38784344	0.49419101	0.10909494	0.37406033	0.5150528	0.20295569	0.41459506	0.69447046	0.17872234	0.30559836	0.10650424	0.10974458	0.28577448	0.099987999	0.20115939	0.33962228	0.365845	0.22749477	0.20391386	0.060069374	0.15470293
2779	27.78	0.44078683	0.064907227	0.14594254	0.35052554	1.0079577	0.15860213	0.27751038	1.0233576	0.19901456	0.13959807	1.0446725	0.037054321	0.2448119	1.0418571	-0.1410016	0.33853226	1.0296515	-0.11131638	0.4645495	1.4160219	0.028551071	0.38081839	1.4562958	0.23675005	0.36626654	1.4741891	-0.15386549	0.47632117	1.2520399	0.021461029	0.46287704	1.379426	-0.08793251	0.38681693	0.49432913	0.10848319	0.37319815	0.51533716	0.20223318	0.41541129	0.69420782	0.17813214	0.30565613	0.10651056	0.10969411	0.28574359	0.10002108	0.20108755	0.33885583	0.36618387	0.22698451	0.20392143	0.060109795	0.15468533
2780	27.79	0.4407952	0.064889297	0.14594121	0.35350955	1.0095403	0.15807573	0.28028854	1.0243425	0.1984014	0.14226759	1.0452501	0.036530415	0.24728859	1.0425676	-0.14155748	0.34132913	1.0312349	-0.11193909	0.46374792	1.4189773	0.027941195	0.37944623	1.4583274	0.23618678	0.36471564	1.4762952	-0.15445874	0.47684879	1.2550592	0.020743319	0.46227841	1.3823718	-0.088600708	0.38575729	0.49446213	0.10780608	0.37230725	0.51561658	0.2014563	0.41623068	0.6939458	0.17751111	0.30569095	0.10650698	0.10963576	0.28571329	0.10005936	0.20101025	0.33806345	0.36653604	0.2264357	0.20392845	0.060151627	0.15466579
2781	27.8	0.44080432	0.064871788	0.14593581	0.35646072	1.011083	0.15750681	0.28308005	1.0252954	0.19776282	0.14489711	1.0457673	0.036013386	0.24969516	1.0431987	-0.14212686	0.34402982	1.0327474	-0.1126125	0.46293735	1.4218221	0.027293854	0.3781322	1.4602609	0.23559407	0.36314719	1.4782928	-0.15506902	0.4773418	1.2579867	0.019981174	0.46165866	1.3852212	-0.089304245	0.38465787	0.49458981	0.10706346	0.3713848	0.51588916	0.2006284	0.41703104	0.69368048	0.17685635	0.30570889	0.10649628	0.10956994	0.28568262	0.10010306	0.20092819	0.33724216	0.36690051	0.22585199	0.20393582	0.060194244	0.15464526
2782	27.81	0.4408143	0.064854889	0.14592744	0.35937766	1.0125864	0.1569001	0.28587277	1.0262172	0.19710669	0.14749124	1.0462318	0.035501522	0.25203279	1.0437509	-0.14271143	0.34663354	1.0341838	-0.1133322	0.46212088	1.4245614	0.026607323	0.3768757	1.4621046	0.23497166	0.36155713	1.480187	-0.15569487	0.4778179	1.2608256	0.019168575	0.46102231	1.3879802	-0.090045601	0.38351508	0.49471167	0.10626421	0.37043121	0.51615387	0.19975838	0.41778998	0.69340619	0.17616771	0.30571518	0.10648119	0.10949779	0.28565155	0.10015253	0.20084283	0.3363905	0.3672746	0.2252403	0.20394424	0.060237278	0.15462451
2783	27.82	0.44082495	0.064838722	0.14591771	0.36225989	1.0140466	0.15626135	0.28865372	1.0271069	0.1964404	0.1500555	1.046653	0.034992603	0.25430417	1.0442278	-0.14331149	0.3491506	1.0355402	-0.11409135	0.46130203	1.4271968	0.025880705	0.37567487	1.463865	0.23431987	0.35994354	1.4819839	-0.15633447	0.47829404	1.2635764	0.018301258	0.46037317	1.390651	-0.09082592	0.38233337	0.49482825	0.10542374	0.36944797	0.51641064	0.19885768	0.41849103	0.69311676	0.17544894	0.3057139	0.10646436	0.10942097	0.28562085	0.10020831	0.20075618	0.33550751	0.36765405	0.2246097	0.20395409	0.060280586	0.15460352
2784	27.83	0.44083618	0.064823418	0.14590816	0.36510858	1.0154567	0.15559659	0.29141391	1.0279609	0.19576874	0.15259564	1.0470385	0.034484352	0.25651471	1.0446375	-0.14392604	0.35159665	1.0368116	-0.11488165	0.46048404	1.4297274	0.025113989	0.37452692	1.4655469	0.23363983	0.3583092	1.4836913	-0.15698668	0.47878186	1.266238	0.017377613	0.45971298	1.3932328	-0.091644867	0.38112042	0.49493973	0.10455894	0.36843561	0.51665973	0.19793626	0.41912741	0.69280682	0.17470752	0.30570822	0.10644817	0.10934145	0.28559134	0.10027075	0.20067036	0.33459241	0.36803516	0.22396895	0.2039651	0.060324036	0.15458179
